#!OML:ASF F:\VICON\USERDATA\INSTALL\rory3\rory3.ASF
:FULLY-SPECIFIED
:DEGREES
3478
root -3.36228 18.1906 1.32927 -107.479 86.3248 255.292
lowerback 6.79085 -3.96289 -3.16438
upperback 3.5255 -5.37303 -0.842614
thorax 0.0564796 -2.68379 1.24197
lowerneck -5.73723 -8.08503 -9.31288
upperneck 30.7978 -12.3173 10.7681
head 12.396 -5.10375 4.19933
rclavicle 8.69683e-014 -1.11319e-014
rhumerus 2.21115 -15.8621 -76.8069
rradius 50.2595
rwrist -87.4229
rhand -26.8647 -7.26393
rfingers 7.12502
rthumb -0.289377 322.757
lclavicle 8.69683e-014 -1.11319e-014
lhumerus 5.10546 -21.4704 99.0495
lradius 46.6526
lwrist 97.9032
lhand -23.9658 31.1626
lfingers 7.12502
lthumb 2.51043 61.1276
rfemur -18.043 19.7766 11.9273
rtibia 22.4507
rfoot -8.97684 9.0182
rtoes -14.4751
lfemur -5.88848 1.25027 -8.21041
ltibia 48.3732
lfoot -18.9319 5.951
ltoes -8.52343
3479
root -3.38403 18.1766 1.27131 -97.2851 86.403 265.645
lowerback 6.73397 -3.99547 -3.232
upperback 3.56008 -5.41738 -0.842893
thorax 0.132078 -2.70853 1.27505
lowerneck -5.66097 -7.84957 -9.25875
upperneck 31.6568 -11.9674 10.5951
head 12.6753 -4.93034 4.20895
rclavicle 2.33572e-014 -1.19271e-014
rhumerus 2.82629 -15.4589 -76.4881
rradius 51.361
rwrist -87.3616
rhand -26.3121 -6.53103
rfingers 7.12502
rthumb 0.244321 323.489
lclavicle 2.33572e-014 -1.19271e-014
lhumerus 6.19543 -21.2215 98.7567
lradius 47.3028
lwrist 97.7732
lhand -23.6742 31.073
lfingers 7.12502
lthumb 2.79196 61.0345
rfemur -18.1513 19.9702 11.8184
rtibia 22.4761
rfoot -8.7844 9.63001
rtoes -14.3354
lfemur -5.67238 0.59977 -8.13715
ltibia 47.9023
lfoot -19.5188 6.14584
ltoes -8.01944
3480
root -3.40687 18.1606 1.21323 -83.3086 86.9443 279.795
lowerback 6.68324 -3.9473 -3.94498
upperback 3.60425 -5.38768 -0.989717
thorax 0.258853 -2.70323 1.50822
lowerneck -5.58221 -7.64906 -9.26439
upperneck 32.4764 -11.6476 10.4066
head 12.9518 -4.78327 4.21738
rclavicle 1.16289e-014 2.94201e-014
rhumerus 3.42519 -15.0836 -76.1828
rradius 52.715
rwrist -87.0375
rhand -26.3731 -6.21886
rfingers 7.12502
rthumb 0.185365 323.801
lclavicle 1.16289e-014 2.94201e-014
lhumerus 7.18546 -21.232 98.3126
lradius 48.3098
lwrist 97.9509
lhand -23.7728 30.315
lfingers 7.12502
lthumb 2.69674 60.2777
rfemur -18.3137 20.0782 11.0843
rtibia 22.5112
rfoot -8.44583 10.5059
rtoes -14.0619
lfemur -5.29511 -0.152831 -8.79525
ltibia 47.1365
lfoot -20.1368 6.51588
ltoes -6.63195
3481
root -3.42908 18.1449 1.14891 -59.7115 87.4369 303.485
lowerback 6.51469 -3.88354 -4.82866
upperback 3.62577 -5.33774 -1.33803
thorax 0.423189 -2.68839 1.61977
lowerneck -5.47748 -7.42435 -8.99606
upperneck 33.2446 -11.3408 10.2417
head 13.1895 -4.60914 4.18568
rclavicle 6.70898e-014 5.56597e-015
rhumerus 3.95889 -14.8315 -76.1796
rradius 54.2234
rwrist -86.5088
rhand -26.7219 -6.32603
rfingers 7.12502
rthumb -0.15148 323.694
lclavicle 6.70898e-014 5.56597e-015
lhumerus 8.01155 -21.2389 97.6407
lradius 49.6635
lwrist 98.3784
lhand -23.124 30.4122
lfingers 7.12502
lthumb 3.32336 60.3661
rfemur -18.593 19.9431 10.026
rtibia 22.5284
rfoot -8.3225 11.239
rtoes -15.5334
lfemur -4.87267 -1.12036 -9.86247
ltibia 46.1366
lfoot -20.8601 6.72454
ltoes -3.70794
3482
root -3.45091 18.1301 1.08205 -45.5642 86.8296 317.61
lowerback 6.21455 -3.83891 -4.75787
upperback 3.65287 -5.25721 -1.45856
thorax 0.593924 -2.65024 1.42999
lowerneck -5.38037 -7.1963 -8.68706
upperneck 33.9618 -11.0461 10.1321
head 13.4154 -4.42973 4.16567
rclavicle -1.77912e-014 -3.97569e-015
rhumerus 4.42755 -14.4662 -76.1158
rradius 55.8913
rwrist -86.1798
rhand -25.9338 -5.59017
rfingers 7.12502
rthumb 0.609681 324.431
lclavicle -1.77912e-014 -3.97569e-015
lhumerus 8.72154 -21.0412 97.0421
lradius 51.2107
lwrist 98.5708
lhand -21.8218 31.623
lfingers 7.12502
lthumb 4.58088 61.5535
rfemur -18.9645 20.1142 9.84562
rtibia 22.5199
rfoot -8.16662 11.5359
rtoes -16.7248
lfemur -4.54572 -2.09223 -9.93231
ltibia 44.9678
lfoot -21.4326 6.82796
ltoes -2.06567
3483
root -3.47333 18.1136 1.0194 -39.3676 85.9895 323.828
lowerback 5.9836 -3.78452 -4.58433
upperback 3.71606 -5.16235 -1.42466
thorax 0.768381 -2.60577 1.3452
lowerneck -5.34735 -7.01684 -8.46644
upperneck 34.6633 -10.7872 9.97191
head 13.662 -4.28263 4.13239
rclavicle 8.66701e-014 5.56597e-015
rhumerus 4.82085 -14.0401 -75.8915
rradius 57.8389
rwrist -86.0436
rhand -24.5463 -4.02208
rfingers 7.12502
rthumb 1.94974 326.007
lclavicle 8.66701e-014 5.56597e-015
lhumerus 9.32299 -20.7839 96.5201
lradius 52.912
lwrist 98.3239
lhand -20.6653 32.2825
lfingers 7.12502
lthumb 5.69749 62.1859
rfemur -19.2532 20.6233 9.86556
rtibia 22.4216
rfoot -7.73964 11.5373
rtoes -16.1123
lfemur -4.1646 -3.18374 -9.77182
ltibia 43.6467
lfoot -21.7225 7.1255
ltoes -2.21444
3484
root -3.49528 18.0949 0.955495 -33.1391 85.2199 330.198
lowerback 5.93042 -3.68905 -4.68941
upperback 3.77593 -5.03433 -1.40772
thorax 0.863744 -2.54637 1.40834
lowerneck -5.28235 -6.87483 -8.26071
upperneck 35.3353 -10.568 9.78097
head 13.8984 -4.16052 4.08278
rclavicle -2.48481e-015 8.74653e-015
rhumerus 5.11128 -13.7286 -75.5111
rradius 59.8955
rwrist -86.1377
rhand -23.1937 -3.31875
rfingers 7.12502
rthumb 3.25604 326.726
lclavicle -2.48481e-015 8.74653e-015
lhumerus 9.76348 -20.7879 95.9241
lradius 54.865
lwrist 98.4251
lhand -19.8112 31.5624
lfingers 7.12502
lthumb 6.52213 61.442
rfemur -19.3693 20.9325 9.71741
rtibia 22.1909
rfoot -7.26375 11.8778
rtoes -15.7522
lfemur -3.64816 -4.43206 -9.9129
ltibia 42.2544
lfoot -21.9039 7.25856
ltoes -2.63885
